<svg width="157" height="29" viewBox="0 0 157 29" fill="none" xmlns="http://www.w3.org/2000/svg">
<path d="M26.6524 12.0804C26.6524 9.51622 25.0815 7.80078 22.5896 7.80078H16.2334V21.2173H19.1406V16.2877H21.2353L23.5827 21.2173H26.833L24.1967 15.9446C25.8399 15.3307 26.6524 13.8861 26.6524 12.0804ZM23.6188 12.5137C23.6188 13.3805 23.0771 13.8319 22.2104 13.8319H19.1406V10.3288H22.2104C23.0771 10.3288 23.6188 10.7983 23.6188 11.647V12.5137Z" fill="white"/>
<path d="M70.387 16.8294H70.3147L69.0327 14.1389L65.367 7.80078H62.1709V21.2173H64.9156V12.1706H64.9698L66.2699 14.8792L69.9355 21.2173H73.1317V7.80078H70.387V16.8294Z" fill="white"/>
<path d="M47.2016 7.80078H44.2764V10.1302L47.0391 19.3213V21.2173H49.9644V18.888L47.2016 9.6968V7.80078Z" fill="white"/>
<path d="M55.4897 7.80078H52.5645V10.1302L55.3453 19.3213V21.2173H58.2706V18.888L55.4897 9.6968V7.80078Z" fill="white"/>
<path d="M38.3362 7.80078H33.4607L32.9009 9.6968L30.1201 18.888V21.2173H33.0454V19.3213L35.7179 10.4552H36.079L38.7515 19.3213V21.2173H41.6768V18.888L38.914 9.6968L38.3362 7.80078Z" fill="white"/>
<path d="M83.1004 13.1457L81.7461 12.9291C81.1682 12.8388 80.771 12.7124 80.5362 12.5318C80.3015 12.3512 80.1931 12.0623 80.1931 11.6109C80.1931 10.7983 80.8251 10.383 82.1072 10.383H86.2243V7.80078H82.1072C80.5904 7.81884 79.4167 8.19804 78.5499 8.92033C77.6832 9.64262 77.2679 10.6177 77.2679 11.8095C77.2679 12.9291 77.5929 13.8319 78.261 14.4639C78.9291 15.0959 79.9584 15.4932 81.3488 15.6557L82.667 15.8363C83.2448 15.9085 83.6421 16.071 83.8768 16.3238C84.1116 16.5766 84.2199 16.8836 84.2199 17.2809C84.2199 17.7865 84.0393 18.1837 83.6782 18.4726C83.317 18.7616 82.7934 18.906 82.1072 18.906C80.789 18.906 79.6695 18.3824 78.7486 17.3531L76.8525 19.3033C78.1527 20.7479 79.832 21.4701 81.9086 21.4701C82.992 21.4701 83.931 21.2896 84.7255 20.9284C85.52 20.5673 86.1159 20.0617 86.5312 19.3936C86.9466 18.7254 87.1452 17.9851 87.1452 17.1183C87.1452 15.9807 86.8202 15.0959 86.152 14.4459C85.4839 13.7958 84.4547 13.3624 83.1004 13.1457Z" fill="white"/>
<path d="M10.1663 14.2111V14.1028C11.0872 13.7597 11.7914 12.8207 11.7914 11.2497C11.7914 10.2205 11.4844 9.37176 10.8524 8.75782C10.2385 8.12581 9.35367 7.81884 8.25218 7.81884L0 7.80078V10.1121H1.7335V21.1993H8.84807C9.35367 21.1993 9.80511 21.109 10.2385 20.8923C10.6538 20.6937 11.033 20.4228 11.34 20.0797C11.6469 19.7366 11.8817 19.3213 12.0623 18.8518C12.2428 18.3823 12.3151 17.8948 12.3151 17.3531C12.3151 15.6196 11.2497 14.5903 10.1663 14.2111ZM4.65878 10.2566H7.566C7.94521 10.2566 8.25218 10.3649 8.46887 10.5816C8.68555 10.7983 8.7939 11.1053 8.7939 11.4845V12.0623C8.7939 12.4415 8.68555 12.7485 8.46887 12.9652C8.25218 13.1819 7.94521 13.2902 7.566 13.2902H4.65878V10.2566ZM9.26339 17.5517C9.26339 17.9309 9.15504 18.2379 8.9203 18.4546C8.70361 18.6713 8.39664 18.7796 7.99938 18.7796H4.65878V15.7099H8.01744C8.39664 15.7099 8.70361 15.8182 8.93836 16.0349C9.15504 16.2516 9.28144 16.5405 9.28144 16.9197V17.5517H9.26339Z" fill="white"/>
<path d="M107.26 10.437C105.002 10.437 103.179 12.2608 103.179 14.518C103.179 16.7751 105.002 18.5989 107.26 18.5989C109.517 18.5989 111.341 16.7751 111.341 14.518C111.341 12.2608 109.499 10.437 107.26 10.437Z" fill="white"/>
<path d="M150.218 5.79639V0H92.1641V5.79639L97.9605 23.2036V29H156.015V23.2036L150.218 5.79639ZM107.26 21.4521C103.432 21.4521 100.326 18.3462 100.326 14.5181C100.326 10.6899 103.432 7.58406 107.26 7.58406C111.088 7.58406 114.194 10.6899 114.194 14.5181C114.194 18.3462 111.088 21.4521 107.26 21.4521ZM125.985 19.3755C125.57 20.0255 124.974 20.5311 124.18 20.9103C123.385 21.2715 122.446 21.4521 121.363 21.4521C119.286 21.4521 117.607 20.7298 116.307 19.2852L118.221 17.335C119.142 18.3643 120.261 18.8879 121.579 18.8879C122.266 18.8879 122.789 18.7435 123.15 18.4365C123.512 18.1476 123.692 17.7503 123.692 17.2447C123.692 16.8655 123.584 16.5405 123.349 16.2877C123.114 16.0349 122.717 15.8724 122.139 15.8001L120.821 15.6196C119.431 15.457 118.401 15.0598 117.733 14.4278C117.065 13.7958 116.74 12.911 116.74 11.7733C116.74 10.5816 117.173 9.60647 118.022 8.88418C118.889 8.16189 120.063 7.80075 121.579 7.76463H125.678V10.3649H121.561C120.279 10.3649 119.647 10.7802 119.647 11.5928C119.647 12.0262 119.756 12.3331 119.99 12.5137C120.225 12.6943 120.622 12.8207 121.2 12.911L122.554 13.1276C123.927 13.3443 124.938 13.7777 125.606 14.4097C126.274 15.0598 126.599 15.9446 126.599 17.0822C126.599 17.967 126.383 18.7073 125.985 19.3755ZM153.107 26.1289H135.7V23.2217L129.904 5.81445V2.90722H147.311V5.81445L153.107 23.2217V26.1289Z" fill="white"/>
<path d="M142.815 9.28149H140.197V13.1999H136.278V15.8182H140.197V19.7367H142.815V15.8182H146.733V13.1999H142.815V9.28149Z" fill="white"/>
</svg>
