<svg width="95" height="15" viewBox="0 0 95 15" fill="none" xmlns="http://www.w3.org/2000/svg">
<path d="M29.3063 4.69357C29.3063 1.9069 27.5985 0.00756836 24.9089 0.00756836H18.0095V14.6669H21.1777V9.28864H23.4499L25.9926 14.6669H29.5143L26.6603 8.90877C28.4306 8.2385 29.3063 6.66184 29.3063 4.69357ZM26.0348 5.15557C26.0348 6.10157 25.4529 6.6061 24.5132 6.6061H21.1777V2.7737H24.5118C25.45 2.7737 26.0333 3.27824 26.0333 4.22424L26.0348 5.15557Z" fill="white"/>
<path d="M76.7219 9.87653H76.6593L75.2628 6.9344L71.2829 0H67.8223V14.6681H70.8029V4.7916H70.8654L72.2604 7.73373L76.2418 14.6681H79.7024V0H76.7219V9.87653Z" fill="white"/>
<path d="M51.5871 0.00293284L48.4189 0V0.00293284V2.54173L51.4242 12.5957V14.6681H54.5938V12.1249L51.5871 2.0724V0.00293284Z" fill="white"/>
<path d="M60.5812 0.00293284L57.4115 0V0.00293284V2.54173L60.4183 12.5957V14.6681H63.5865V12.1249L60.5812 2.0724V0.00293284Z" fill="white"/>
<path d="M41.9806 0H36.6974L36.0791 2.06947L33.0739 12.1235V14.6667H36.2421V12.5943L39.1412 2.89667H39.5368L42.4359 12.5943V14.6667H45.6056V12.1235L42.5989 2.06947L41.9806 0Z" fill="white"/>
<path d="M93.8154 7.24973C93.0939 6.54964 91.9893 6.08031 90.5017 5.84173L89.0471 5.61147C88.4216 5.5132 87.9852 5.36947 87.7379 5.18027C87.4906 4.99107 87.3626 4.65813 87.3626 4.18147C87.3626 3.30147 88.0565 2.838 89.4456 2.838H93.9071V0H89.4384C87.7995 0.0293333 86.5145 0.436089 85.5836 1.22027C84.6526 2.00493 84.1871 3.06827 84.1871 4.37067C84.1871 5.60413 84.5478 6.58533 85.2708 7.27173C85.9938 7.95813 87.1109 8.39227 88.6267 8.57414L90.0639 8.76333C90.6894 8.84645 91.1258 9.02489 91.3731 9.29867C91.628 9.58259 91.7627 9.9558 91.7484 10.3385C91.7582 10.5865 91.7107 10.8333 91.6097 11.0596C91.5088 11.2858 91.357 11.4854 91.1665 11.6424C90.7786 11.9631 90.2089 12.124 89.4573 12.1249C88.0259 12.1249 86.8098 11.5578 85.809 10.4236L83.7463 12.5459C85.1506 14.1289 86.9776 14.9204 89.2275 14.9204C90.4086 14.9204 91.4269 14.7204 92.2822 14.3205C93.0814 13.9702 93.7597 13.3888 94.2314 12.65C94.6839 11.905 94.9151 11.0448 94.8977 10.1713C94.8986 8.92467 94.5379 7.9508 93.8154 7.24973Z" fill="white"/>
<path d="M0.40686 0V2.54173H2.28626V14.6667H9.99587C10.5135 14.6716 11.0258 14.5604 11.4956 14.3411C11.9483 14.1285 12.3528 13.8245 12.6841 13.4479C13.0251 13.0563 13.2901 12.6035 13.4652 12.1132C13.6545 11.5918 13.7496 11.0404 13.7459 10.4852C13.7459 8.55067 12.5982 7.4272 11.4185 7.0092V6.89333C12.412 6.52667 13.1815 5.5 13.1815 3.7708C13.1815 2.6356 12.8446 1.72529 12.1706 1.03987C11.4966 0.354444 10.5549 0.0122217 9.34565 0.0131995L0.40686 0ZM5.45448 2.69133H8.60233C8.78152 2.67515 8.96205 2.69883 9.13118 2.7607C9.3003 2.82257 9.4539 2.92112 9.58112 3.04939C9.70833 3.17765 9.80607 3.33252 9.86743 3.50304C9.92879 3.67356 9.95228 3.85559 9.93623 4.03627V4.66693C9.95281 4.84773 9.92968 5.02998 9.86851 5.20074C9.80733 5.37151 9.7096 5.52659 9.58227 5.65498C9.45494 5.78336 9.30113 5.8819 9.13176 5.94358C8.9624 6.00526 8.78164 6.02857 8.60233 6.01187H5.45448V2.69133ZM10.457 10.6568C10.4675 10.8362 10.4406 11.0158 10.3779 11.1841C10.3153 11.3523 10.2183 11.5055 10.0933 11.6336C9.8208 11.8753 9.46514 11.9995 9.10272 11.9797H5.45448V8.61813H9.10418C9.46648 8.5991 9.82186 8.72327 10.0948 8.96426C10.2198 9.09238 10.3167 9.24551 10.3794 9.41377C10.442 9.58202 10.469 9.76166 10.4585 9.94106L10.457 10.6568Z" fill="white"/>
</svg>
